<?xml version="1.0" encoding="UTF-8"?>
<svg width="140px" height="96px" viewBox="0 0 140 96" version="1.1" xmlns="http://www.w3.org/2000/svg" xmlns:xlink="http://www.w3.org/1999/xlink">
    <!-- Generator: Sketch 46.2 (44496) - http://www.bohemiancoding.com/sketch -->
    <title>Group 3</title>
    <desc>Created with Sketch.</desc>
    <defs></defs>
    <g id="Page-1" stroke="none" stroke-width="1" fill="none" fill-rule="evenodd">
        <g transform="translate(-734.000000, -1438.000000)">
            <g id="Group-3" transform="translate(734.000000, 1438.000000)">
                <path d="M62.2304903,23 C62.1808127,23 62.1311352,22.9957635 62.0805023,22.9872904 C61.5053891,22.898323 61.0248543,22.3221535 61.0067029,21.7004412 C60.9885515,21.0924976 60.6541834,6.76345843 68.2338312,3.50449964 C70.1464169,2.68155164 71.8841758,2.86584115 73.3974305,4.05419077 C75.2163931,5.48190493 76.5433569,8.30026351 77.3401084,12.4330088 C77.9037575,15.3541035 77.9954699,17.8706086 77.9992913,17.9765221 C78.0203087,18.5982344 77.5713001,19.0335389 76.9961869,18.9466899 C76.4210737,18.8608999 75.9376729,18.2868487 75.9166555,17.6640772 C75.8258984,15.0691961 75.0157722,7.88296427 72.3876387,5.8218873 C71.545031,5.16204612 70.5275966,5.10379368 69.2732384,5.64289347 C62.7769433,8.43583281 63.0855173,21.8889672 63.0893387,22.0245365 C63.1055794,22.5911738 62.7310871,23 62.2304903,23" id="Fill-1" fill="#94BE46"></path>
                <path d="M47.5350875,17.5518665 C47.5350875,17.5518665 46.2643492,17.9254073 45.9662034,18.2959519 C45.6391113,18.7014534 45.5754296,19.7981053 45.5754296,19.7981053 L41,56.3371902 L75.355282,63 L78,8.03156921 C77.6217696,7.95466374 77.2338905,8.03955938 77.1402978,8.06253115 L47.5350875,17.5518665 Z" id="Fill-2" fill="#94BE46"></path>
                <path d="M87.7161518,12.3711389 C87.5502799,12.2682063 87.3698943,12.2482193 87.3698943,12.2482193 L82.160481,11.874464 L78.3257309,8.20286721 C78.1826664,8.09493786 78.0136844,8.03197907 77.8415924,8 L75,63 L95,58.8267316 L87.9348953,12.7548877 C87.9348953,12.7548877 87.8809869,12.4740715 87.7161518,12.3711389 Z" id="Fill-3" fill="#5F8D3E"></path>
                <path d="M64.8567552,36.8022857 C64.328552,36.0597226 63.7121535,35.4070754 63.0628029,34.8301999 C62.4212057,34.2603964 61.7476255,33.7633338 61.0876139,33.3228474 C60.6175615,33.0177399 60.2095367,32.721725 59.8645086,32.4327821 C59.5214189,32.1458598 59.2384183,31.8639889 59.0145377,31.5811078 C58.7925955,31.2992369 58.6297732,31.0163557 58.5251018,30.7274128 C58.4204303,30.4384699 58.3748789,30.1414447 58.3874782,29.832296 C58.4049234,29.4150463 58.494088,29.0371979 58.6462493,28.7038023 C58.7984105,28.3683861 59.0155069,28.0774226 59.2897848,27.8329324 C59.5660012,27.5884423 59.9003683,27.3914358 60.2851328,27.2479746 C60.673774,27.1035032 61.1157201,27.0135874 61.6032177,26.9832787 C62.1333592,26.9499391 62.6460554,26.9671141 63.133553,27.0196491 C63.6268657,27.0731945 64.0940105,27.1621 64.5282031,27.2732319 C64.9672417,27.385374 65.3713898,27.5197426 65.7348323,27.6601729 C66.1011824,27.8016135 66.4248885,27.9501261 66.6981973,28.0885358 L69,20.9387146 C68.6578794,20.7568624 68.2430704,20.5891543 67.7633262,20.4477137 C67.288428,20.3082937 66.7524714,20.194131 66.1632099,20.1163386 C65.5826711,20.0385463 64.9517348,19.9971244 64.280093,20.0001553 C63.6191122,20.0031862 62.9193642,20.0506698 62.1905408,20.1496782 C60.6194999,20.3638597 59.2015895,20.8174798 57.9620081,21.463055 C56.7563481,22.090445 55.7106028,22.9057489 54.8509401,23.8725963 C54.0077534,24.8202481 53.3351425,25.9214641 52.8612134,27.1479559 C52.3911611,28.3623243 52.111068,29.7110613 52.0500097,31.173961 C52.0131808,32.048872 52.0974995,32.8520524 52.2806745,33.5936051 C52.4628804,34.339199 52.7468502,35.0261961 53.106416,35.6606581 C53.4698585,36.3021922 53.9127738,36.8922015 54.4128707,37.437758 C54.9197519,37.9893762 55.4857531,38.497552 56.0866447,38.9653162 C56.5760806,39.3391235 56.9899205,39.689694 57.3349486,40.031172 C57.6828843,40.3746705 57.9581314,40.7070559 58.1703819,41.038431 C58.3826323,41.3718266 58.5299477,41.7032017 58.6200814,42.0467002 C58.7111843,42.3901988 58.7441365,42.7427899 58.7286296,43.1186177 C58.7131227,43.4934353 58.6355883,43.8440059 58.4979647,44.1551751 C58.3622795,44.4653341 58.165536,44.7360918 57.91258,44.9492629 C57.6615623,45.1614238 57.3543322,45.3170084 56.9947664,45.4018728 C56.637139,45.4857268 56.2291142,45.4998709 55.7716612,45.4301609 C55.2550882,45.350348 54.7327001,45.1947634 54.225819,44.9916951 C53.7247529,44.7916577 53.2372553,44.545147 52.7817406,44.2804511 C52.3320411,44.0177757 51.9114169,43.7369151 51.5373134,43.4621163 C51.1670866,43.1903483 50.8414421,42.9246421 50.5758868,42.6912651 L49,48.1417788 C49.2607094,48.4903288 49.5931382,48.8388788 49.984687,49.1753053 C50.3801124,49.515773 50.8365962,49.8441172 51.3415391,50.1512453 C51.852297,50.4614043 52.4144214,50.7483266 53.0124055,51.0008991 C53.6200814,51.2565024 54.2655553,51.4767456 54.936228,51.645464 C54.9468889,51.6484949 54.9585191,51.6505155 54.9691801,51.6535463 C54.9808102,51.6565772 54.9924404,51.6596081 55.0040706,51.6616286 C55.0147315,51.6646595 55.0263617,51.6666801 55.0379919,51.669711 C55.0486528,51.6717315 55.060283,51.6747624 55.070944,51.6777933 C56.4995154,52.0061375 57.8844737,52.0859504 59.1763908,51.9061188 C60.507075,51.7212357 61.7292111,51.2595333 62.7856174,50.51596 C63.865284,49.756222 64.7608064,48.7065309 65.4111262,47.371938 C66.0691995,46.0191599 66.4665633,44.3885521 66.5450669,42.4972895 C66.5935259,41.3405076 66.4403954,40.2908165 66.1380112,39.3401337 C65.8375654,38.3955127 65.3927118,37.5539413 64.8567552,36.8022857" id="Fill-4" fill="#FFFFFF"></path>
                <path d="M52.9787459,20 C52.9323115,20 52.8858772,19.9968225 52.8385324,19.988349 C52.3040822,19.8993779 51.9335179,19.3231842 52.009998,18.7014458 C52.0846571,18.0934767 53.938389,3.76383552 61.6555952,0.503680636 C63.6031062,-0.318242753 65.2310398,-0.133945498 66.4938719,1.05445404 C68.0107272,2.48222818 68.8483663,5.30070516 68.981296,9.43256488 C69.0759857,12.3548415 68.780991,14.8714523 68.7682443,14.9773702 C68.6944957,15.5991087 68.2010169,16.0333723 67.6656562,15.9475788 C67.131206,15.8617852 66.7579103,15.2877098 66.831659,14.6649122 C67.1384898,12.0699221 67.455336,4.88338839 65.2629065,2.82222484 C64.5609284,2.16235593 63.5985539,2.10410105 62.3229751,2.6421643 C55.7074465,5.43628015 53.9620614,18.8899798 53.9456729,19.0255547 C53.8746556,19.5922158 53.4567465,20 52.9787459,20" id="Fill-5" fill="#94BE46"></path>
                <polygon id="Star" fill="#FCC419" points="10 92 4.12214748 95.0901699 5.24471742 88.545085 0.489434837 83.9098301 7.06107374 82.954915 10 77 12.9389263 82.954915 19.5105652 83.9098301 14.7552826 88.545085 15.8778525 95.0901699"></polygon>
                <polygon id="Star-Copy" fill="#FCC419" points="40 92 34.1221475 95.0901699 35.2447174 88.545085 30.4894348 83.9098301 37.0610737 82.954915 40 77 42.9389263 82.954915 49.5105652 83.9098301 44.7552826 88.545085 45.8778525 95.0901699"></polygon>
                <polygon id="Star-Copy-2" fill="#FCC419" points="70 92 64.1221475 95.0901699 65.2447174 88.545085 60.4894348 83.9098301 67.0610737 82.954915 70 77 72.9389263 82.954915 79.5105652 83.9098301 74.7552826 88.545085 75.8778525 95.0901699"></polygon>
                <polygon id="Star-Copy-3" fill="#FCC419" points="100 92 94.1221475 95.0901699 95.2447174 88.545085 90.4894348 83.9098301 97.0610737 82.954915 100 77 102.938926 82.954915 109.510565 83.9098301 104.755283 88.545085 105.877853 95.0901699"></polygon>
                <polygon id="Star-Copy-4" fill="#FCC419" points="130 92 124.122147 95.0901699 125.244717 88.545085 120.489435 83.9098301 127.061074 82.954915 130 77 132.938926 82.954915 139.510565 83.9098301 134.755283 88.545085 135.877853 95.0901699"></polygon>
            </g>
        </g>
    </g>
</svg>